<?xml version="1.0" encoding="UTF-8"?> <svg xmlns="http://www.w3.org/2000/svg" width="40" height="42" viewBox="0 0 40 42" fill="none"><path d="M32.2526 3.65952L26.1425 7.17288L13.6759 0.00146484L0 7.86487V16.2819L6.1101 19.7952V34.1349L19.786 41.9983L27.1024 37.793V30.7631L39.5721 23.5948V7.86802L32.2526 3.65952ZM33.1999 11.5229V6.41801L37.6396 8.97204V14.077L33.1999 11.5229ZM33.1999 18.8359V13.731L37.6396 16.285V21.3899L33.1999 18.8359ZM20.7333 24.9033V19.7984L31.28 13.731V18.8359L20.7333 24.9033ZM31.28 6.41801V11.5229L27.0898 13.9323V8.82735L31.28 6.41801ZM25.1699 30.7662V35.5881L20.7491 33.034V28.2154L25.1699 30.7662ZM12.4539 17.2412V29.376L8.03316 31.9269V19.7952L12.4539 17.2412ZM13.4012 31.0305L17.8409 33.5845L13.4265 36.1354L9.00571 33.5845L13.4012 31.0305ZM18.8008 19.7952V31.9269L14.3611 29.376V17.2412L18.8008 19.7952ZM19.7481 18.1376L9.19833 12.0734L13.638 9.51933L24.1847 15.5867L19.7481 18.1376ZM8.23838 10.4158V5.31084L12.6781 2.75995V7.86487L8.23838 10.4158ZM11.4687 15.5867L7.03216 18.1376L2.84191 15.7283L7.27847 13.1774L11.4687 15.5867ZM6.31852 6.41486V11.5198L1.89777 14.0738V8.96889L6.31852 6.41486ZM19.7481 34.6885L24.1689 37.2394L19.7481 39.7934L15.3084 37.2394L19.7481 34.6885ZM36.6544 23.0507L26.1046 29.1181L21.6838 26.564L32.2305 20.4998L36.6544 23.0507ZM25.1446 8.83364V13.9386L14.598 7.87431V2.7631L25.1446 8.83364Z" fill="#00B48A"></path></svg> 